<?xml version="1.0" encoding="utf-8"?>
<!-- Generator: Adobe Illustrator 26.0.2, SVG Export Plug-In . SVG Version: 6.00 Build 0)  -->
<svg version="1.1" id="Layer_1" xmlns="http://www.w3.org/2000/svg" xmlns:xlink="http://www.w3.org/1999/xlink" x="0px" y="0px"
	 viewBox="0 0 951 1260.8" style="enable-background:new 0 0 951 1260.8;" xml:space="preserve">
<style type="text/css">
	.st0{fill:#FFFFFF;stroke:#AEE5F2;stroke-width:6;stroke-miterlimit:10;}
	.st1{fill:#DCF5FF;}
	.st2{fill:#3F4D79;}
	.st3{fill:none;stroke:#AEE5F2;stroke-width:3;stroke-miterlimit:10;}
	.st4{fill:none;stroke:#AEE5F2;stroke-width:1.5;stroke-miterlimit:10;}
	.st5{fill:#FFB000;}
	.st6{fill:none;stroke:#FFFFFF;stroke-width:2;stroke-miterlimit:10;}
	.st7{fill:none;stroke:#3CBFD4;stroke-width:3;stroke-linecap:round;stroke-miterlimit:10;}
	.st8{fill:#FFFFFF;stroke:#FFB000;stroke-width:4;stroke-miterlimit:10;}
	.st9{fill:none;stroke:#FFB000;stroke-width:3;stroke-linecap:round;stroke-linejoin:round;}
	.st10{fill:none;stroke:#FFB000;stroke-width:5;stroke-miterlimit:10;}
	.st11{fill:#FFFFFF;stroke:#AEE5F2;stroke-width:6;stroke-linejoin:round;}
	.st12{fill:none;stroke:#3CBFD4;stroke-width:4;stroke-linecap:round;stroke-linejoin:round;}
	.st13{fill:#DC9600;}
	.st14{fill:#FFFFFF;stroke:#3CBFD4;stroke-width:4;stroke-linejoin:round;}
	.st15{fill:#FFB000;stroke:#3CBFD4;stroke-width:4;stroke-linejoin:round;}
	.st16{fill:none;stroke:#AEE5F2;stroke-width:6;stroke-linejoin:round;}
	.st17{fill:#DAF3F9;}
	.st18{fill:#AAD9F3;}
	.st19{fill:#C36F0B;}
	.st20{fill:#2D4263;}
	.st21{fill:none;stroke:#3F4D79;stroke-width:6;stroke-miterlimit:10;}
	.st22{fill:#FFFFFF;stroke:#3CBFD4;stroke-width:6;stroke-miterlimit:10;}
	.st23{fill:none;stroke:#AAD9F3;stroke-width:8;stroke-linecap:round;stroke-miterlimit:10;}
	.st24{fill:#B65A18;}
	.st25{fill:none;stroke:#FFFFFF;stroke-width:6;stroke-linecap:round;stroke-miterlimit:10;}
	.st26{fill:none;stroke:#3F4D79;stroke-width:3;stroke-miterlimit:10;}
	.st27{fill:none;stroke:#3CBFD4;stroke-width:3;stroke-miterlimit:10;}
	.st28{fill:#3CBFD4;}
</style>
<g id="Layer_2_00000065778870429758286150000000111192003372931228_">
	<g id="Слой_1">
		<g id="_4">
			<g id="EQUIPMENT">
				<g id="MONITOR">
					<polygon class="st0" points="368.5,420.3 187.7,420.3 227.7,314.6 408.5,314.6 					"/>
					<polygon class="st0" points="411.5,314.6 371.5,420.3 200.7,420.3 240.7,314.6 					"/>
					<path class="st0" d="M65.5,26.3h479.9c6.3,0,11.5,5.1,11.5,11.5v275.4c0,6.3-5.1,11.5-11.5,11.5H65.5
						c-6.3,0-11.5-5.1-11.5-11.5V37.8C54,31.4,59.2,26.2,65.5,26.3z"/>
					<polygon class="st1" points="407.8,314.6 396.6,345.7 227.6,358.7 244.1,314.6 					"/>
					<path class="st0" d="M77.6,26.3h479.9c6.3,0,11.5,5.1,11.5,11.5v275.4c0,6.3-5.1,11.5-11.5,11.5H77.6
						c-6.3,0-11.5-5.1-11.5-11.5V37.8C66.1,31.4,71.2,26.2,77.6,26.3z"/>
					<rect x="91" y="49.7" class="st2" width="458.7" height="201.1"/>
					<rect x="91" y="49.7" class="st3" width="458.7" height="201.1"/>
					<line class="st4" x1="127.6" y1="49.7" x2="127.6" y2="250.8"/>
					<line class="st4" x1="166" y1="49.7" x2="166" y2="250.8"/>
					<line class="st4" x1="204.5" y1="49.7" x2="204.5" y2="250.8"/>
					<line class="st4" x1="242.9" y1="49.7" x2="242.9" y2="250.8"/>
					<line class="st4" x1="281.3" y1="49.7" x2="281.3" y2="250.8"/>
					<line class="st4" x1="319.8" y1="49.7" x2="319.8" y2="250.8"/>
					<line class="st4" x1="358.2" y1="49.7" x2="358.2" y2="250.8"/>
					<line class="st4" x1="396.6" y1="49.7" x2="396.6" y2="250.8"/>
					<line class="st4" x1="435.1" y1="49.7" x2="435.1" y2="250.8"/>
					<line class="st4" x1="473.5" y1="49.7" x2="473.5" y2="250.8"/>
					<line class="st4" x1="511.9" y1="49.7" x2="511.9" y2="250.8"/>
					<path class="st1" d="M549.7,169.6c-16.2,0-13.9-26-36-26c-22.4,0-42.2,71.8-71.6,71.8c-31.5,0-44.3-65.2-70.6-65.2
						c-35.6,0-35.3,50.3-74.8,50.3s-58.8-93.8-92-93.8c-30.2,0-38.6,87-76.8,87c-20.3,0-23.8-23.4-37.5-23.4"/>
					<path class="st5" d="M91.4,170.4c113.1,0,117.5-25.1,165.8-25.1c42.5,0,58,46,92,46c38.8,0,58.2-51.8,84.5-51.8
						s39.4,52.9,61.5,52.9c22.1,0,29.7-22.7,53.9-22.7L91.4,170.4z"/>
					<path class="st6" d="M90.3,169.1c133.7,0,132.5-37,171.7-37c38.7,0,57.7,69.9,91.7,69.9c38.8,0,49.6-77.8,80.1-77.8
						c31.5,0,42.8,79,67.2,79c22,0,24-32.4,48.2-32.4"/>
					<line class="st7" x1="93.6" y1="267.6" x2="549.2" y2="267.6"/>
					<path class="st5" d="M92.6,263.9l160.1-0.1l0,0v7.3l0,0H92.6c-1.8,0-3.3-1.5-3.3-3.3l0,0v-0.6
						C89.3,265.4,90.8,263.9,92.6,263.9L92.6,263.9L92.6,263.9z"/>
					<circle class="st8" cx="259.8" cy="267.9" r="6"/>
					<path class="st5" d="M314.7,285.7h0.5c1.3,0,2.3,1,2.3,2.3v14c0,1.3-1,2.3-2.3,2.3h-0.5c-1.3,0-2.3-1-2.3-2.3v-14
						C312.4,286.7,313.4,285.7,314.7,285.7z"/>
					<path class="st5" d="M324.6,285.7h0.5c1.3,0,2.3,1,2.3,2.3v14c0,1.3-1,2.3-2.3,2.3h-0.5c-1.3,0-2.3-1-2.3-2.3v-14
						C322.3,286.7,323.3,285.7,324.6,285.7z"/>
					<path class="st5" d="M338.9,302.5v-15c0-0.9,0.8-1.7,1.7-1.7c0.3,0,0.6,0.1,0.9,0.3l11.9,7.5c0.8,0.5,1,1.5,0.5,2.3
						c-0.1,0.2-0.3,0.4-0.5,0.5l-11.9,7.5c-0.8,0.5-1.8,0.3-2.3-0.5C339.1,303.1,339,302.8,338.9,302.5z"/>
					<path class="st9" d="M295,291v5c0,4.1-3.3,7.5-7.5,7.5h-5.1c-4.5,0-8.1-3.6-8.1-8.1l0,0l0,0c0-4.5,3.6-8.1,8.1-8.1"/>
					<polyline class="st9" points="289.4,292.9 295,287.3 300.6,292.9 					"/>
				</g>
				<polyline id="TABLE" class="st10" points="0,536.9 618.5,536.9 618.5,567.3 0.5,567.3 				"/>
				<g id="EQUALIZER">
					<polygon class="st11" points="593,516.5 593,530.9 241.6,530.9 241.6,516.5 68.3,409.9 419.7,409.9 578.5,507.5 					"/>
					<polygon class="st11" points="241.6,516.5 241.6,530.9 68.3,530.9 68.3,409.9 					"/>
					<line class="st12" x1="200.6" y1="468.1" x2="259.7" y2="504.4"/>
					<polygon class="st5" points="254.5,496.4 254.5,499.1 246.2,499.1 246.2,496.4 240.8,490.7 232.9,482.3 241.2,482.3 					"/>
					<polygon class="st13" points="254.5,496.4 254.5,499.1 246.2,499.1 240.8,495.8 232.9,491 232.9,482.3 240.8,490.7 
						246.2,496.4 246.2,496.4 					"/>
					<path class="st14" d="M191.6,453.8c0,1.5-3.4,2.8-7.7,2.8s-7.7-1.2-7.7-2.8l2-14.7h11.3L191.6,453.8z"/>
					<ellipse class="st15" cx="183.9" cy="439.2" rx="5.6" ry="3.1"/>
					<path class="st14" d="M164.8,438.6c0,1.5-3.4,2.8-7.7,2.8s-7.7-1.2-7.7-2.8l2-14.7h11.3L164.8,438.6z"/>
					<ellipse class="st15" cx="157.1" cy="424" rx="5.6" ry="3.1"/>
					<path class="st14" d="M140.1,422.6c0,1.5-3.4,2.8-7.7,2.8s-7.7-1.2-7.7-2.8l2-14.7H138L140.1,422.6z"/>
					<ellipse class="st15" cx="132.4" cy="408" rx="5.6" ry="3.1"/>
					<path class="st14" d="M249,453.8c0,1.5-3.4,2.8-7.7,2.8s-7.7-1.2-7.7-2.8l2-14.7h11.3L249,453.8z"/>
					<ellipse class="st15" cx="241.2" cy="439.2" rx="5.6" ry="3.1"/>
					<path class="st14" d="M222.1,438.6c0,1.5-3.4,2.8-7.7,2.8s-7.7-1.2-7.7-2.8l2-14.7H220L222.1,438.6z"/>
					<ellipse class="st15" cx="214.4" cy="424" rx="5.6" ry="3.1"/>
					<path class="st14" d="M197.4,422.6c0,1.5-3.4,2.8-7.7,2.8s-7.7-1.2-7.7-2.8l2-14.7h11.3L197.4,422.6z"/>
					<ellipse class="st15" cx="189.7" cy="408" rx="5.6" ry="3.1"/>
					<path class="st14" d="M301.2,453.8c0,1.5-3.4,2.8-7.7,2.8s-7.7-1.2-7.7-2.8l2-14.7h11.3L301.2,453.8z"/>
					<ellipse class="st15" cx="293.5" cy="439.2" rx="5.6" ry="3.1"/>
					<path class="st14" d="M274.4,438.6c0,1.5-3.4,2.8-7.7,2.8s-7.7-1.2-7.7-2.8l2-14.7h11.2L274.4,438.6z"/>
					<ellipse class="st15" cx="266.6" cy="424" rx="5.6" ry="3.1"/>
					<path class="st14" d="M249.7,422.6c0,1.5-3.4,2.8-7.7,2.8s-7.7-1.2-7.7-2.8l2-14.7h11.3L249.7,422.6z"/>
					<ellipse class="st15" cx="242" cy="408" rx="5.6" ry="3.1"/>
					<path class="st14" d="M354.2,453.8c0,1.5-3.4,2.8-7.7,2.8s-7.7-1.2-7.7-2.8l2-14.7h11.3L354.2,453.8z"/>
					<ellipse class="st15" cx="346.5" cy="439.2" rx="5.6" ry="3.1"/>
					<path class="st14" d="M327.3,438.6c0,1.5-3.5,2.8-7.7,2.8c-4.3,0-7.7-1.2-7.7-2.8l2-14.7h11.3L327.3,438.6z"/>
					<ellipse class="st15" cx="319.6" cy="424" rx="5.6" ry="3.1"/>
					<path class="st14" d="M302.6,422.6c0,1.5-3.4,2.8-7.7,2.8s-7.7-1.2-7.7-2.8l2-14.7h11.3L302.6,422.6z"/>
					<ellipse class="st15" cx="294.9" cy="408" rx="5.6" ry="3.1"/>
					<path class="st14" d="M405,453.8c0,1.5-3.4,2.8-7.7,2.8s-7.7-1.2-7.7-2.8l2-14.7h11.3L405,453.8z"/>
					<ellipse class="st15" cx="397.2" cy="439.2" rx="5.6" ry="3.1"/>
					<path class="st14" d="M378.1,438.6c0,1.5-3.4,2.8-7.7,2.8s-7.7-1.2-7.7-2.8l2-14.7H376L378.1,438.6z"/>
					<ellipse class="st15" cx="370.4" cy="424" rx="5.6" ry="3.1"/>
					<path class="st14" d="M353.4,422.6c0,1.5-3.4,2.8-7.7,2.8s-7.7-1.2-7.7-2.8l2-14.7h11.3L353.4,422.6z"/>
					<ellipse class="st15" cx="345.7" cy="408" rx="5.6" ry="3.1"/>
					<path class="st14" d="M456,453.8c0,1.5-3.4,2.8-7.7,2.8s-7.7-1.2-7.7-2.8l2-14.7h11.3L456,453.8z"/>
					<ellipse class="st15" cx="448.2" cy="439.2" rx="5.6" ry="3.1"/>
					<path class="st14" d="M429.1,438.6c0,1.5-3.4,2.8-7.7,2.8s-7.7-1.2-7.7-2.8l2-14.7H427L429.1,438.6z"/>
					<ellipse class="st15" cx="421.4" cy="424" rx="5.6" ry="3.1"/>
					<path class="st14" d="M404.4,422.6c0,1.5-3.4,2.8-7.7,2.8s-7.7-1.2-7.7-2.8l2-14.7h11.3L404.4,422.6z"/>
					<ellipse class="st15" cx="396.7" cy="408" rx="5.6" ry="3.1"/>
					<line class="st16" x1="241.6" y1="517.3" x2="593" y2="517.3"/>
					<line class="st12" x1="253.6" y1="468.1" x2="312.7" y2="504.4"/>
					<polygon class="st5" points="278.9,484 265.6,470 273.9,470 287.2,484 					"/>
					<polygon class="st13" points="278.9,484 287.2,484 287.2,486.8 278.9,486.8 273.5,483.4 265.6,478.6 265.6,470 					"/>
					<line class="st12" x1="305.8" y1="468.1" x2="364.9" y2="504.4"/>
					<polygon class="st5" points="351.4,496.4 338.2,482.3 346.5,482.3 359.7,496.4 					"/>
					<polygon class="st13" points="351.4,496.4 359.7,496.4 359.7,499.1 351.4,499.1 346.1,495.8 338.2,490.9 338.2,482.3 					"/>
					<line class="st12" x1="357.4" y1="468.1" x2="416.4" y2="504.4"/>
					<polygon class="st5" points="402.9,496.4 389.7,482.3 398,482.3 411.3,496.4 					"/>
					<polygon class="st13" points="402.9,496.4 411.3,496.4 411.3,499.1 402.9,499.1 397.6,495.8 389.7,490.9 389.7,482.3 					"/>
					<line class="st12" x1="411.1" y1="468.1" x2="470.1" y2="504.4"/>
					<polygon class="st5" points="456.7,496.4 443.4,482.3 451.7,482.3 465,496.4 					"/>
					<polygon class="st13" points="456.7,496.4 465,496.4 465,499.1 456.7,499.1 451.3,495.8 443.4,490.9 443.4,482.3 					"/>
					<line class="st12" x1="462.1" y1="468.1" x2="521.1" y2="504.4"/>
					<polygon class="st5" points="507.7,496.4 494.4,482.3 502.7,482.3 516,496.4 					"/>
					<polygon class="st13" points="507.7,496.4 516,496.4 516,499.1 507.7,499.1 502.3,495.8 494.4,490.9 494.4,482.3 					"/>
				</g>
			</g>
			<g id="MAN">
				<g id="RIGHT_LEG">
					<g id="SHOE">
						<path class="st17" d="M727.2,1164.3c0,14.9-31.9,82-42.3,82h-99.8c0,0,1.2-39.4,32.3-42.5c0,0,24.8-90.8,36.4-91
							c17.4-0.3,41.4-3.7,41.4-3.7C702.6,1116.2,727.1,1149.3,727.2,1164.3z"/>
						<path class="st18" d="M581.8,1254.3h103c10.4,0,42.3-75.1,42.3-90c-9.1-6.4-40.3-12.2-51.4,8.5
							c-14.1,26.5-28.1,67.3-33.6,72.9h-60.3V1254.3z"/>
					</g>
					<path id="FOOT" class="st19" d="M642.2,1085.2l11.6,27.7c0,0,28,6.3,41.4-3.7v-30.9C677.7,1082.3,660,1084.6,642.2,1085.2z"/>
					<path id="LEG" class="st20" d="M488.5,828c6.4,20.7,126.7,245.4,140.8,254.2c14.1,8.8,71.7-3.7,74.2-7s-26-236-42.6-237.8
						C644.3,835.6,488.5,828,488.5,828z"/>
				</g>
				<g id="CHAIR">
					<path class="st21" d="M829.7,859.9l65,395.5c0.2,1.4,1.4,2.4,2.8,2.4l0,0c1.6,0,2.9-1.3,2.9-2.9c0-0.1,0-0.2,0-0.3l-38.5-400.2
						"/>
					<path class="st21" d="M619.7,859.3l-65,396.1c-0.2,1.4-1.4,2.4-2.8,2.4l0,0c-1.6,0-2.9-1.3-2.9-2.9c0-0.1,0-0.2,0-0.3
						l38.5-400.8"/>
					<path class="st22" d="M900.6,819.7c0,3.6-6,7-16.8,10c-28,7.9-88.2,13.4-158,13.4c-68.8,0-128.3-5.3-156.8-13l-1.2-0.3
						c-10.8-3-16.8-6.4-16.8-10c0.1-0.7,0.3-1.4,0.7-2c7.8-11.9,82.8-21.3,174.2-21.3C822.4,796.5,900.7,806.9,900.6,819.7z"/>
					<path class="st22" d="M900.7,819.9v20c0,12.9-78.3,23.4-174.8,23.4c-72.6,0-134.9-5.9-161.3-14.3c-8.7-2.8-13.5-5.8-13.5-9v-20
						c0,3.6,6,7,16.8,10l1.2,0.3c28.5,7.7,88,13,156.8,13c69.8,0,130-5.5,158-13.4C894.7,826.8,900.7,823.4,900.7,819.9z"/>
				</g>
				<g id="LEFT_LEG">
					<g id="SHOE-2">
						<path class="st17" d="M541,1109.2c8,4.2,46.7,25.9,46.7,43.5s-37.2,43.4-50.1,55.7c-12.9,12.3-25.2,46.8-39.3,48.6
							s-93.8,0-93.8,0s-6.9-27.6,27.9-38.7C474,1205.1,488,1139,488,1139L541,1109.2z"/>
						<path class="st23" d="M587.7,1150.7c0,17.6-37.2,43.4-50.1,55.7c-12.9,12.3-25.2,46.8-39.3,48.6s-93.8,0-93.8,0"/>
					</g>
					<path id="FOOT-2" class="st19" d="M526.8,1087.2c0,0-0.7,12,14.2,22c14.9,10-39,30.6-53,29.8l-16.3-27.3
						C471.7,1111.7,515.4,1097,526.8,1087.2z"/>
					<path id="LEG-2" class="st2" d="M870.8,720.4c0,0,32.9,108.7-46.4,116.5c-97.3,9.5-333.9-7.9-333.9-7.9s46.1,161,48.7,251.3
						c0,0-39.6,33.9-87.7,33c0,0-206.9-284.6-141.6-376.8c57.8-81.6,322.3-84.8,322.3-84.8S643,719.5,870.8,720.4z"/>
				</g>
				<path id="T-SHIRT" class="st5" d="M936.6,497.3c-20.9,81.7-41.8,143.1-25.7,216.3c0,0-66.2,37.3-200.6-0.9
					c-59-16.8-103-65.2-103-65.2s46.8-42.5,43.3-77.8c-3.1-30.7-16.5-85.6-24.3-135c-27.7-14.7-61.6-37.3-85.2-68
					c0,0,2.9-20.5,52.8-83.2c39.1-49.1,122-52.4,154.5-55.2c48-9.7,85.3-11.6,108.1-11.2c20.8,0.4,36.3,10.8,49.2,27
					C942.7,290.8,968.5,371.9,936.6,497.3z"/>
				<g id="HAND">
					<path class="st19" d="M671.6,455c-32.4,40.3-74.4,81.1-108,79.6C457.3,530,372.9,493.9,341.9,476c-11.3-0.5-48.2-8.5-54.1-9.7
						c-6.3-1.2-41.7-10.2-40.6-15.5s8.4-22.6,11.3-27c2.9-4.3,26.6-19.1,43.3-20.3c13.9-1,36.5,18.2,43.8,24.8l0,0
						c25.3-1.7,184.2-16.1,184.2-16.1s7.3-13.9,20.1-35C592.6,424.9,658.3,450.3,671.6,455z"/>
					<g id="ARM">
						<path class="st24" d="M287.7,466.2c-6.2-1.2-40.1-9.7-42.8-14.3c-5.3-9.2,2.1-21.4,6.8-24.8c4.3-3.1,33.3-22.5,50-23.7
							C301.7,403.4,275.7,432.3,287.7,466.2"/>
					</g>
					<path class="st24" d="M671.6,455c-5.9,7.3-12.1,14.7-18.5,21.8c-15.8-6.9-71-34.5-106.5-94.2c1-1.7,2.2-3.5,3.3-5.4
						C592.7,424.9,658.4,450.3,671.6,455z"/>
					<path class="st25" d="M541.1,365.6c46.5,60.5,132.8,89.2,132.8,89.2l21.9-28.4"/>
				</g>
				<g id="HEAD">
					<g id="NECK">
						<path class="st19" d="M881.5,223.2c-48.5-25.6-52.9-101.8-52.9-101.8l-105.7,41.8l27.6,64.3c0,0,17.9,12.8,76.4,11.8
							S881.5,223.2,881.5,223.2z"/>
						<path class="st24" d="M787.1,137.8c-5.2,13.2-11.2,13.6-11.2,13.6s-2.4,49.3-32.9,57.6c-0.1,0.1-0.2,0.1-0.3,0.1l-19.8-45.9
							L787.1,137.8z"/>
						<path class="st25" d="M749.6,230.6c0,0,18.9,11.8,77.4,11.8c54.6,0,53.5-16.1,53.5-16.1"/>
					</g>
					<path id="HEAD-2" class="st19" d="M785.1,145c0,0-18.6,29-37.2,35.8c-20.5,7.5-55.2,5.5-64.3-19.9
						c-7.6-21.2,21.4-50.9,28-110.6c5.1-46.6,81.5,8.9,77.5,51.8L785.1,145z"/>
					<g id="HAIR">
						<path class="st2" d="M724,14.4c0,0-22.7-5.7-33.5,8.6c-10,13.3-8.2,49.2,39.6,56c29.4,4.2,10.7,38.5,18.9,42.3
							s20.4-29.3,28.2-3.1c5.8,19.5,5.8,32.2,28.5,39.3s28.5-4.3,28.5-4.3s-7.6-25,15.1-67.4c11.1-20.8-4.7-53.3-30.9-56.6
							c-26.2-3.3-28-17.4-46.8-19.3c-23.7-2.4-36.7,27.3-48.8,24.4C710.8,31.4,717.3,20.3,724,14.4z"/>
						<path class="st26" d="M682.7,26.9c-10,13.3-4.9,46.3,51.3,51.1"/>
					</g>
					<g id="CAP">
						<path class="st17" d="M719.6,32.7c0,0,34.1,98.1,132.9,80.1c0,0,21-55.6,0.8-78.5c-22.7-25.8-64.5-41.6-94.7-31
							S719.6,32.7,719.6,32.7z"/>
						<path class="st27" d="M851.5,113.8c0,0,25.6-71.6-15.8-77.4c-16.2-2.3-45.4,16.1-47.8,70.1"/>
						<path class="st28" d="M786.9,106.4c0,0,35.4,50.9,95,53.9c59.6,3-29.3-47.5-29.3-47.5S828.2,116.8,786.9,106.4z"/>
					</g>
				</g>
			</g>
		</g>
	</g>
</g>
</svg>
